<svg version="1.1" id="Layer_1" xmlns="http://www.w3.org/2000/svg" xmlns:xlink="http://www.w3.org/1999/xlink" x="0px" y="0px"
	 width="100%" viewBox="0 0 1024 1024" enable-background="new 0 0 1024 1024" xml:space="preserve">
<path fill="#FFFFFF" opacity="1.000000" stroke="none" 
	d="
M566.000000,1025.000000 
	C377.333344,1025.000000 189.166672,1025.000000 1.000000,1025.000000 
	C1.000000,683.666687 1.000000,342.333344 1.000000,1.000000 
	C342.333344,1.000000 683.666687,1.000000 1025.000000,1.000000 
	C1025.000000,342.333344 1025.000000,683.666687 1025.000000,1025.000000 
	C872.166687,1025.000000 719.333313,1025.000000 566.000000,1025.000000 
M702.811890,156.699905 
	C649.592163,123.170555 591.541016,103.723190 528.986267,98.219322 
	C489.995636,94.788734 451.092072,96.377159 412.681305,104.607185 
	C327.098328,122.944496 254.660141,164.312119 196.558823,229.850128 
	C135.909195,298.262665 102.893234,378.539978 97.315826,469.732849 
	C94.657814,513.192383 98.849838,556.208923 110.731407,598.287231 
	C132.847061,676.609375 174.658173,742.415283 236.676971,795.116394 
	C300.635437,849.465759 374.733948,880.238220 458.233826,887.752136 
	C491.136505,890.712952 524.066040,889.668579 556.819641,884.162781 
	C609.345886,875.333252 658.270203,857.188477 703.364319,828.848511 
	C762.319092,791.797791 808.520691,742.565491 841.586914,681.407043 
	C880.185425,610.016357 894.987732,533.619202 887.145935,452.825317 
	C883.224915,412.427002 873.319519,373.539276 857.116211,336.371307 
	C824.234802,260.946289 772.931702,201.178391 702.811890,156.699905 
z"/>
<path fill="#5F54D7" opacity="1.000000" stroke="none" 
	d="
M703.125854,156.882477 
	C772.931702,201.178391 824.234802,260.946289 857.116211,336.371307 
	C873.319519,373.539276 883.224915,412.427002 887.145935,452.825317 
	C894.987732,533.619202 880.185425,610.016357 841.586914,681.407043 
	C808.520691,742.565491 762.319092,791.797791 703.364319,828.848511 
	C658.270203,857.188477 609.345886,875.333252 556.819641,884.162781 
	C524.066040,889.668579 491.136505,890.712952 458.233826,887.752136 
	C374.733948,880.238220 300.635437,849.465759 236.676971,795.116394 
	C174.658173,742.415283 132.847061,676.609375 110.731407,598.287231 
	C98.849838,556.208923 94.657814,513.192383 97.315826,469.732849 
	C102.893234,378.539978 135.909195,298.262665 196.558823,229.850128 
	C254.660141,164.312119 327.098328,122.944496 412.681305,104.607185 
	C451.092072,96.377159 489.995636,94.788734 528.986267,98.219322 
	C591.541016,103.723190 649.592163,123.170555 703.125854,156.882477 
M780.862732,496.646454 
	C780.732666,496.414215 780.554077,496.228729 779.821899,495.601044 
	C776.962097,493.256836 774.102295,490.912659 771.974060,488.180969 
	C783.453491,475.378967 788.841064,460.281036 787.660767,443.233856 
	C787.309326,438.157318 786.242737,432.199768 779.396179,429.590179 
	C774.787964,420.441010 763.342407,421.080536 757.223145,427.040253 
	C752.798645,431.349396 748.854248,436.620026 746.179871,442.176270 
	C734.840454,465.734497 731.198914,490.907623 731.967468,516.843750 
	C732.217957,525.298523 728.155762,531.526794 719.976318,534.146362 
	C721.533813,524.949036 722.978577,515.730652 724.683594,506.560760 
	C726.118042,498.845520 724.863953,495.014954 719.317383,492.371704 
	C716.725464,487.234833 713.025024,485.770050 706.928223,487.524567 
	C699.698120,489.605164 694.914856,494.945343 690.027222,499.460938 
	C689.417908,496.178406 688.498108,493.165527 684.093384,492.243500 
	C681.696228,487.151306 677.643127,485.049408 671.949219,487.795166 
	C666.757751,490.298676 662.391907,494.514343 657.269226,497.372253 
	C657.230042,493.993042 656.434998,491.332764 652.075256,491.166962 
	C651.214233,489.808502 650.625549,487.619080 649.446045,487.232605 
	C643.729919,485.359711 637.201294,488.585358 635.659607,494.489716 
	C633.665039,502.128113 631.569702,509.942688 631.229553,517.755920 
	C630.859497,526.255432 626.581970,531.054626 619.962341,533.962524 
	C621.409912,523.829773 622.695435,513.669922 624.378357,503.576447 
	C625.137512,499.023285 623.804932,496.856232 619.015015,496.205627 
	C617.248474,488.680847 611.199463,492.268463 606.490295,491.459229 
	C605.667542,486.859711 602.133362,485.926178 598.312561,486.952667 
	C593.275818,488.305847 587.794373,489.483185 583.642151,492.371887 
	C571.142517,501.067841 564.922974,513.445679 564.831970,528.820251 
	C564.781189,537.389709 567.661926,544.364929 575.317749,549.532288 
	C575.564148,549.762146 575.855591,549.886108 576.046997,549.890869 
	C576.046997,549.890869 576.091003,549.751892 576.275452,550.448792 
	C581.500427,555.799622 588.108215,557.628418 594.568909,554.515015 
	C598.455505,552.642090 601.706604,549.450562 605.826782,547.093872 
	C607.205811,548.060242 608.584839,549.026672 610.269775,550.613525 
	C612.380493,552.087463 614.299866,554.086121 616.637268,554.938477 
	C624.075317,557.650940 629.366821,552.947266 635.417786,549.244568 
	C636.577759,549.795349 637.737793,550.346130 639.011047,551.630249 
	C641.389160,553.068787 643.974854,555.901367 646.091797,555.586182 
	C648.627014,555.208740 651.103821,552.420959 652.951660,550.145630 
	C654.213318,548.592224 654.224731,546.077271 655.019226,544.081482 
	C658.615234,535.048096 662.290955,526.046387 666.023926,517.885925 
	C665.463806,522.964600 664.551697,528.034912 664.429443,533.124084 
	C664.263367,540.043030 664.048035,547.256592 672.053833,551.606873 
	C674.618286,553.027344 677.099121,555.395508 679.768127,555.630859 
	C683.184814,555.932190 685.801758,553.518127 686.947693,549.866455 
	C689.226929,542.603210 691.469604,535.312683 694.195557,528.213196 
	C695.301392,525.333008 697.629761,522.922302 699.525696,521.149414 
	C698.963135,526.068848 698.164551,530.975464 697.897095,535.910889 
	C697.555542,542.214539 699.997681,547.189453 706.054016,550.740234 
	C707.774536,552.137878 709.284790,554.079285 711.251648,554.839905 
	C720.218628,558.307800 732.687500,553.398193 740.771912,544.085327 
	C742.852051,545.651306 744.932129,547.217346 747.237183,549.459961 
	C752.144348,555.232361 758.710083,556.459473 765.674255,555.546753 
	C777.731750,553.966431 784.602417,545.911560 788.623596,535.290100 
	C790.090515,531.415649 792.388245,530.449707 795.912415,529.952209 
	C799.976379,529.378601 804.075378,528.636536 807.968262,527.377380 
	C812.411072,525.940369 812.184082,521.884460 811.945068,518.190430 
	C811.731201,514.885254 809.902588,513.047424 806.165955,512.381165 
	C805.486938,508.870178 803.487061,507.950470 800.079895,508.860291 
	C796.785522,509.739929 793.372009,510.173828 789.989807,510.075775 
	C788.144958,505.486237 787.120667,500.336945 781.901611,498.038544 
	C781.901611,498.038544 781.951904,498.127655 781.793335,497.630096 
	C781.529785,497.413269 781.266235,497.196442 781.007324,496.994415 
	C781.007324,496.994415 781.018311,497.005280 780.862732,496.646454 
M311.051056,550.827148 
	C311.051056,550.827148 311.129364,550.699280 311.260498,551.425354 
	C312.899841,552.678406 314.362488,554.392090 316.210571,555.100952 
	C322.584351,557.546021 329.537323,553.200928 333.654083,545.256409 
	C335.459442,546.893738 337.264832,548.531006 339.387024,550.743896 
	C343.157349,555.682373 348.086975,557.335754 353.854431,555.126038 
	C358.405884,553.382141 362.719299,551.016907 367.721252,549.131470 
	C368.801819,549.714417 369.882416,550.297302 371.246338,551.528442 
	C377.418854,558.304504 384.011322,556.922668 386.741119,548.233459 
	C387.333008,546.349365 387.340057,544.242676 388.129059,542.466064 
	C391.433960,535.024536 394.933746,527.669556 398.435120,521.123291 
	C397.850037,525.400574 397.006256,529.661682 396.738922,533.958740 
	C396.310577,540.843750 397.955078,546.882080 405.075714,550.762878 
	C408.958862,555.395935 413.955780,556.526672 419.719788,555.611328 
	C428.766693,554.174683 435.145325,548.580933 441.241882,542.340881 
	C444.712250,538.788879 446.269409,534.837769 446.115479,529.852783 
	C446.003143,526.214233 444.750092,524.573975 440.879639,524.294800 
	C438.583130,518.743652 436.760681,518.558960 432.449402,522.811829 
	C428.141907,527.060974 423.487030,530.958008 418.987091,534.136841 
	C420.558533,525.223267 422.495087,516.354736 423.601044,507.383728 
	C424.760284,497.980316 424.778564,494.418793 418.233887,492.348053 
	C415.608490,487.141754 411.435150,485.040070 405.574371,487.817993 
	C400.223236,490.354309 395.664368,494.562195 390.309723,497.440216 
	C390.318024,493.685883 388.947266,491.328278 384.717896,491.125214 
	C383.803864,489.772430 383.154663,487.602966 381.930664,487.206055 
	C376.154816,485.333160 369.663300,488.564056 368.152618,494.519745 
	C366.083862,502.675507 363.929596,510.984131 363.455688,519.320740 
	C362.982483,527.644104 358.139374,531.498779 351.977325,534.107056 
	C354.113068,522.182678 356.216034,510.252228 358.400726,498.336792 
	C359.280823,493.536804 358.503296,492.501892 353.103149,491.184753 
	C352.360199,489.863251 351.934937,487.856781 350.819092,487.339386 
	C346.107117,485.154297 339.984741,487.872986 338.162476,492.902161 
	C336.587280,497.249329 335.900665,501.964874 333.982483,506.131409 
	C330.358368,514.003418 326.131653,521.598022 322.075867,528.428162 
	C322.536072,525.326721 322.844971,522.193542 323.488068,519.130493 
	C324.812897,512.820496 326.354797,506.556549 327.734894,500.257721 
	C329.060883,494.205994 328.029114,492.467316 322.907471,491.214661 
	C321.445282,489.805084 320.142792,487.448242 318.489929,487.169617 
	C314.127380,486.434204 309.750214,487.164520 307.371002,491.652893 
	C306.075134,494.097534 305.282501,496.808899 304.115662,498.575897 
	C304.069794,495.255524 302.905975,492.941956 298.849304,492.327362 
	C297.311249,487.293549 293.036774,487.682098 289.154449,487.601868 
	C284.078125,487.496918 278.996155,487.663910 273.949402,486.827362 
	C274.619080,478.761871 275.773407,470.697052 275.785278,462.630615 
	C275.792999,457.392914 277.860443,456.704407 282.262451,456.894562 
	C295.179504,457.452545 308.110718,457.689056 321.037292,458.015472 
	C324.579590,458.104950 327.821136,457.315552 328.891449,453.397339 
	C330.315552,448.184174 328.838989,445.245728 323.789337,442.358765 
	C321.612030,440.847900 319.584137,438.332764 317.234039,437.983032 
	C296.077820,434.834625 274.748871,433.933228 253.531342,436.580261 
	C243.600266,437.819244 233.529602,440.351593 224.292801,444.164520 
	C211.216370,449.562408 205.964600,462.329956 210.329544,475.507324 
	C211.411301,478.773041 214.755966,481.289124 217.373886,484.743927 
	C217.697296,485.121887 217.997940,485.522461 218.347672,485.874268 
	C221.861679,489.408386 227.603043,490.245972 231.410904,487.725433 
	C236.084656,484.631805 233.388428,481.185333 231.899033,477.726105 
	C229.116379,471.263184 231.201324,464.764191 237.664551,461.818634 
	C241.799911,459.933960 246.473648,459.230652 250.999451,458.866974 
	C250.062698,468.560303 249.125946,478.253662 248.197662,487.859406 
	C241.802612,489.160248 234.046631,486.403717 232.268234,495.438751 
	C231.352890,500.088959 234.089874,502.524261 238.090729,504.770935 
	C240.558151,506.225769 243.025574,507.680603 245.503036,510.009338 
	C244.000824,515.919678 243.393906,522.259216 240.809586,527.650879 
	C235.467010,538.796997 221.828476,540.760803 212.739685,532.331543 
	C211.286942,530.984253 210.081299,529.368225 208.780670,527.859802 
	C206.675659,525.418518 203.942215,522.197205 201.003326,524.493408 
	C198.763245,526.243652 197.589798,530.320984 197.425095,533.441345 
	C197.307144,535.676086 199.256592,538.397095 200.977875,540.259521 
	C203.303024,542.775269 206.294113,544.675598 209.221237,547.362244 
	C209.543518,547.538208 209.865784,547.714172 210.060532,547.822998 
	C210.060532,547.822998 210.152344,547.711914 210.278610,548.420410 
	C217.856155,555.305603 227.116409,556.391968 236.752930,555.977234 
	C249.964111,555.408813 261.117004,547.254150 265.127655,534.645203 
	C267.271881,527.904175 268.576416,520.880371 269.988434,513.929016 
	C270.674011,510.553833 271.798828,508.939087 275.748474,508.866882 
	C284.624878,508.704559 293.705719,510.617432 302.307495,507.815521 
	C301.593353,515.691101 300.407471,523.560242 300.299316,531.444092 
	C300.193695,539.140320 302.520569,546.149231 310.309021,550.554626 
	C310.558411,550.786316 310.853119,550.893066 311.051056,550.827148 
M492.029755,562.904419 
	C492.029755,562.904419 492.077484,562.841064 492.088104,563.564209 
	C492.474304,564.074097 492.772095,564.697815 493.260010,565.076721 
	C500.233887,570.492432 514.670288,570.567932 523.052490,565.635559 
	C534.348572,558.988525 540.126282,548.204773 544.872131,536.777649 
	C554.695007,513.125854 557.561768,487.902954 561.103088,462.838318 
	C561.306519,461.398224 562.777283,459.541290 564.121338,458.972229 
	C567.852417,457.392395 568.204224,454.496460 568.019287,451.191833 
	C567.843323,448.045288 567.343994,445.087189 562.979126,444.295197 
	C561.326660,439.886108 557.400696,438.926361 553.446472,438.076508 
	C538.490540,434.862183 523.321106,434.081299 508.278564,436.391541 
	C499.703308,437.708527 490.889801,440.020325 483.183624,443.880585 
	C470.133087,450.418030 465.427307,465.775513 471.399872,479.034332 
	C472.643860,481.795868 475.728729,483.728180 478.062531,486.755188 
	C481.311066,491.244720 485.322754,492.288727 489.480988,489.726654 
	C494.250580,486.787964 494.930878,484.296844 492.434174,478.912506 
	C488.009277,469.369873 491.678741,461.063782 502.653656,459.287292 
	C513.664429,457.505035 524.995239,457.699860 536.246033,457.919525 
	C535.170776,466.992981 533.932129,476.051544 533.103088,485.147430 
	C532.784546,488.642639 531.105591,490.051056 528.155090,491.629089 
	C517.362061,497.401642 506.546417,503.227051 496.302063,509.896942 
	C489.416718,514.379883 484.634308,521.180725 481.645142,529.025330 
	C476.450409,542.658020 479.225555,553.559143 490.322937,562.367493 
	C490.915894,562.557617 491.508820,562.747681 492.029755,562.904419 
M766.347412,309.129761 
	C748.096375,281.970001 726.501831,257.757568 700.965027,237.330994 
	C623.549255,175.407181 535.542358,152.561554 437.825531,168.005371 
	C378.945496,177.311172 326.681274,201.852966 281.052734,240.202530 
	C236.512955,277.637024 204.066544,323.725952 183.598419,378.212799 
	C182.969650,379.886597 182.507111,381.622833 181.967087,383.329956 
	C182.450119,383.588562 182.933167,383.847168 183.416199,384.105743 
	C216.597565,295.618469 275.279144,230.506470 361.971649,192.901688 
	C448.822052,155.228439 536.892090,155.007385 623.772949,193.014374 
	C710.263916,230.850800 768.943787,295.827545 802.793640,383.792755 
	C794.640442,357.093842 782.080383,332.732941 766.347412,309.129761 
M721.424622,729.924133 
	C753.380249,698.941711 778.254089,663.132935 795.412231,622.055420 
	C732.803589,746.493469 634.277588,815.897705 492.949249,820.059998 
	C351.599731,816.060303 252.804581,746.947021 190.196320,622.241211 
	C190.287292,623.434631 190.537170,624.514893 190.979660,625.509460 
	C211.772095,672.242920 241.513275,712.424683 280.761688,745.148743 
	C329.455811,785.748352 385.354187,810.719360 448.341583,819.294006 
	C484.296997,824.188782 520.158203,823.216736 555.745972,816.269226 
	C619.186768,803.884216 674.100708,774.891785 721.424622,729.924133 
z"/>
<path fill="#FCFCFE" opacity="1.000000" stroke="none" 
	d="
M690.100098,500.234558 
	C694.914856,494.945343 699.698120,489.605164 706.928223,487.524567 
	C713.025024,485.770050 716.725464,487.234833 719.514526,493.079041 
	C718.951965,499.683868 718.315552,505.600525 717.398621,511.473419 
	C716.454285,517.521606 714.938538,523.492493 714.232056,529.562195 
	C713.658325,534.490662 715.554382,535.970337 719.972168,535.033997 
	C728.155762,531.526794 732.217957,525.298523 731.967468,516.843750 
	C731.198914,490.907623 734.840454,465.734497 746.179871,442.176270 
	C748.854248,436.620026 752.798645,431.349396 757.223145,427.040253 
	C763.342407,421.080536 774.787964,420.441010 779.732788,430.175751 
	C780.775696,434.319031 781.951538,437.856842 782.103149,441.438019 
	C782.626282,453.790253 778.790955,465.021088 772.372864,475.424286 
	C770.036560,479.211151 767.417542,482.823578 764.767700,486.752502 
	C767.109375,487.409241 769.175903,487.988861 771.242493,488.568451 
	C774.102295,490.912659 776.962097,493.256836 780.106262,496.047119 
	C780.545898,496.729980 780.755127,496.900665 781.018311,497.005280 
	C781.018311,497.005280 781.007324,496.994415 781.054749,497.257751 
	C781.385437,497.723297 781.668640,497.925476 781.951904,498.127655 
	C781.951904,498.127655 781.901611,498.038544 781.920044,498.436890 
	C782.973022,501.766907 784.425476,504.628540 784.931274,507.648712 
	C785.504639,511.072601 787.112427,511.690674 790.010864,510.803528 
	C793.372009,510.173828 796.785522,509.739929 800.079895,508.860291 
	C803.487061,507.950470 805.486938,508.870178 806.242432,513.147949 
	C806.947327,519.638916 804.140564,522.630493 798.686768,523.541260 
	C795.576965,524.060547 792.489502,524.888123 789.361755,525.077576 
	C786.187683,525.269897 784.466248,526.242249 783.317932,529.546204 
	C777.271057,546.943665 764.641357,553.503418 747.012268,548.783386 
	C744.932129,547.217346 742.852051,545.651306 740.363037,543.607544 
	C738.835510,541.484497 737.716919,539.839233 736.337036,537.809692 
	C728.072266,546.649902 718.699158,552.721130 705.947754,550.034485 
	C699.997681,547.189453 697.555542,542.214539 697.897095,535.910889 
	C698.164551,530.975464 698.963135,526.068848 699.449036,520.701599 
	C699.372375,520.253784 699.360535,520.202637 699.595947,520.009888 
	C699.874695,519.213013 699.918030,518.608948 700.126221,517.630371 
	C700.621765,514.240234 700.952454,511.224579 701.283081,508.208923 
	C700.746338,507.918884 700.209595,507.628876 699.672852,507.338867 
	C698.064392,508.960754 695.827209,510.301300 694.954163,512.252258 
	C690.714355,521.726501 686.443848,531.223022 682.962708,540.989197 
	C680.209900,548.712158 679.467346,550.025269 671.956299,550.868042 
	C664.048035,547.256592 664.263367,540.043030 664.429443,533.124084 
	C664.551697,528.034912 665.463806,522.964600 666.093323,517.070557 
	C666.397461,513.570435 666.632202,510.885590 666.866943,508.200775 
	C666.293945,507.913544 665.720947,507.626282 665.147949,507.339050 
	C663.466858,509.093842 661.089478,510.560547 660.223694,512.652771 
	C656.239380,522.281006 652.423218,531.997437 649.066040,541.859070 
	C647.288391,547.080933 645.029297,550.952698 638.897766,550.896851 
	C637.737793,550.346130 636.577759,549.795349 634.980347,548.836304 
	C633.474670,546.463867 632.406433,544.499756 631.216614,542.311829 
	C625.090881,547.480591 618.821838,552.444336 609.963867,549.993103 
	C608.584839,549.026672 607.205811,548.060242 605.395752,546.662720 
	C603.571350,544.206543 602.177917,542.181458 600.539673,539.800720 
	C594.666687,549.116333 586.508545,552.354858 576.091003,549.751892 
	C576.091003,549.751892 576.046997,549.890869 576.045654,549.643921 
	C575.714050,549.308044 575.383850,549.219116 575.053650,549.130188 
	C567.661926,544.364929 564.781189,537.389709 564.831970,528.820251 
	C564.922974,513.445679 571.142517,501.067841 583.642151,492.371887 
	C587.794373,489.483185 593.275818,488.305847 598.312561,486.952667 
	C602.133362,485.926178 605.667542,486.859711 606.490295,491.459229 
	C611.199463,492.268463 617.248474,488.680847 618.994995,496.995575 
	C618.130371,502.647766 617.193970,507.496277 616.464111,512.375732 
	C615.540222,518.551636 614.493469,524.732300 614.057434,530.950012 
	C613.760742,535.180176 615.659119,536.168762 619.947632,534.848389 
	C626.581970,531.054626 630.859497,526.255432 631.229553,517.755920 
	C631.569702,509.942688 633.665039,502.128113 635.659607,494.489716 
	C637.201294,488.585358 643.729919,485.359711 649.446045,487.232605 
	C650.625549,487.619080 651.214233,489.808502 651.995667,491.953186 
	C650.136841,500.436951 648.357544,508.134521 646.578308,515.832092 
	C646.798889,515.835938 647.019470,515.839783 647.240112,515.843628 
	C650.714172,509.887543 654.188171,503.931488 657.662231,497.975403 
	C662.391907,494.514343 666.757751,490.298676 671.949219,487.795166 
	C677.643127,485.049408 681.696228,487.151306 684.203125,493.055237 
	C683.553894,500.585236 682.794983,507.303497 681.761475,514.075928 
	C681.487000,514.686646 681.487000,515.243103 681.487000,515.799622 
	C681.601929,515.799316 681.716858,515.799011 681.831848,515.798706 
	C681.870544,515.180237 681.909241,514.561829 682.278320,513.834717 
	C685.105835,509.228882 687.602966,504.731720 690.100098,500.234558 
M755.107605,535.418335 
	C755.310974,535.685425 755.576843,535.784302 756.708923,536.007202 
	C763.648376,536.147705 769.054993,531.484741 769.748962,524.577576 
	C769.846558,523.606079 769.260986,522.483337 768.767456,521.549072 
	C766.354126,516.979858 763.864746,512.450684 761.579468,507.071442 
	C761.579468,504.851593 761.579468,502.631744 761.579468,500.157715 
	C753.580933,501.451660 750.323120,506.944000 749.439148,513.403381 
	C748.383606,521.116028 746.640015,529.539734 754.983521,535.020142 
	C754.983521,535.020142 754.909668,535.017151 755.107605,535.418335 
M601.127014,506.186584 
	C601.504578,503.996429 601.882141,501.806274 602.447998,498.523712 
	C598.972229,499.992279 596.385864,500.703644 594.212097,502.070923 
	C585.766235,507.383118 579.600525,522.377930 582.200256,531.956909 
	C582.717041,533.860840 585.356445,535.188599 587.739380,536.946716 
	C593.650085,536.233826 595.561096,531.544617 596.802368,526.922241 
	C598.562561,520.367126 599.549744,513.604553 601.127014,506.186584 
M758.603149,478.700317 
	C759.527405,476.760590 760.498474,474.841583 761.368042,472.877655 
	C765.590698,463.341064 769.973450,453.839447 768.992004,442.200806 
	C767.849365,440.190674 766.706726,438.180542 765.564148,436.170349 
	C764.022888,437.772461 761.676636,439.120331 761.076782,441.019775 
	C758.137451,450.326172 755.256592,459.689514 753.150269,469.208679 
	C751.396362,477.134918 750.744690,485.305054 749.604797,493.367188 
	C751.377686,492.699524 751.997131,491.782684 752.478394,490.798309 
	C754.367554,486.933136 756.213135,483.046692 758.603149,478.700317 
z"/>
<path fill="#FCFCFE" opacity="1.000000" stroke="none" 
	d="
M310.036591,550.160034 
	C302.520569,546.149231 300.193695,539.140320 300.299316,531.444092 
	C300.407471,523.560242 301.593353,515.691101 302.505524,507.086273 
	C303.223328,504.038025 303.743134,501.718994 304.262909,499.399994 
	C305.282501,496.808899 306.075134,494.097534 307.371002,491.652893 
	C309.750214,487.164520 314.127380,486.434204 318.489929,487.169617 
	C320.142792,487.448242 321.445282,489.805084 322.778595,491.940308 
	C321.835876,495.884064 320.794861,499.064484 320.253143,502.327789 
	C318.921967,510.346619 317.712830,518.390503 316.730743,526.457947 
	C316.562958,527.836243 317.761139,529.380920 318.328308,530.848694 
	C319.604004,530.335083 320.879669,529.821533 322.155365,529.307922 
	C326.131653,521.598022 330.358368,514.003418 333.982483,506.131409 
	C335.900665,501.964874 336.587280,497.249329 338.162476,492.902161 
	C339.984741,487.872986 346.107117,485.154297 350.819092,487.339386 
	C351.934937,487.856781 352.360199,489.863251 353.054413,491.995667 
	C351.829681,498.672302 350.605804,504.528900 349.490570,510.406128 
	C348.282867,516.770996 346.868378,523.119446 346.124786,529.542236 
	C345.545105,534.549011 347.430725,535.963501 351.968292,534.988037 
	C358.139374,531.498779 362.982483,527.644104 363.455688,519.320740 
	C363.929596,510.984131 366.083862,502.675507 368.152618,494.519745 
	C369.663300,488.564056 376.154816,485.333160 381.930664,487.206055 
	C383.154663,487.602966 383.803864,489.772430 384.472656,491.800842 
	C383.858521,494.232025 383.437683,495.978546 383.130127,497.744812 
	C382.071381,503.825348 381.052246,509.912811 379.823975,516.090332 
	C379.590729,516.467590 379.551422,516.752136 379.512146,517.036743 
	C379.658691,516.669800 379.805237,516.302795 380.274811,515.809265 
	C383.983978,509.799591 387.370148,503.916504 390.756348,498.033386 
	C395.664368,494.562195 400.223236,490.354309 405.574371,487.817993 
	C411.435150,485.040070 415.608490,487.141754 418.427948,493.049713 
	C417.903168,499.500885 417.318085,505.271210 416.429321,510.994324 
	C415.462494,517.220154 413.899475,523.366272 413.186951,529.614502 
	C412.615540,534.625732 414.479462,536.020142 418.984436,535.009399 
	C423.487030,530.958008 428.141907,527.060974 432.449402,522.811829 
	C436.760681,518.558960 438.583130,518.743652 440.911774,525.042969 
	C440.350555,528.169861 440.385712,530.999451 439.057465,532.850952 
	C432.516998,541.968018 421.241730,553.527039 404.971405,550.061951 
	C397.955078,546.882080 396.310577,540.843750 396.738922,533.958740 
	C397.006256,529.661682 397.850037,525.400574 398.379150,520.687622 
	C398.323151,520.251953 398.299988,520.209229 398.536835,520.019897 
	C398.823669,519.234131 398.873688,518.637573 399.057312,517.650024 
	C399.544464,514.247620 399.898010,511.236176 400.251556,508.224762 
	C399.708862,507.929138 399.166168,507.633514 398.623474,507.337921 
	C396.928345,509.090607 394.580444,510.553009 393.649841,512.645691 
	C389.371216,522.267334 385.144531,531.941833 381.599823,541.848083 
	C379.655121,547.282898 377.226227,551.048218 370.962982,550.880249 
	C369.882416,550.297302 368.801819,549.714417 367.297852,548.708740 
	C365.820343,546.308350 364.766266,544.330688 363.615875,542.172302 
	C356.482452,548.570740 348.581055,551.922302 339.070190,550.168335 
	C337.264832,548.531006 335.459442,546.893738 333.333618,544.669067 
	C332.164886,540.752319 331.316650,537.422852 330.439484,533.979980 
	C326.808533,542.728027 322.941589,551.368469 311.129364,550.699280 
	C311.129364,550.699280 311.051056,550.827148 311.058807,550.589783 
	C310.723236,550.288330 310.379913,550.224182 310.036591,550.160034 
z"/>
<path fill="#FCFCFE" opacity="1.000000" stroke="none" 
	d="
M477.965240,486.042664 
	C475.728729,483.728180 472.643860,481.795868 471.399872,479.034332 
	C465.427307,465.775513 470.133087,450.418030 483.183624,443.880585 
	C490.889801,440.020325 499.703308,437.708527 508.278564,436.391541 
	C523.321106,434.081299 538.490540,434.862183 553.446472,438.076508 
	C557.400696,438.926361 561.326660,439.886108 563.048096,445.041443 
	C563.523560,450.924957 561.085449,453.903503 556.332458,454.606964 
	C554.176453,468.465485 552.399109,481.989594 549.907959,495.380890 
	C546.677795,512.744751 542.278503,529.820435 532.897766,545.093750 
	C522.657043,561.767151 510.869019,566.801208 492.077484,562.841064 
	C492.077484,562.841064 492.029755,562.904419 491.913147,562.648071 
	C491.208771,562.191162 490.621033,561.990540 490.033295,561.789978 
	C479.225555,553.559143 476.450409,542.658020 481.645142,529.025330 
	C484.634308,521.180725 489.416718,514.379883 496.302063,509.896942 
	C506.546417,503.227051 517.362061,497.401642 528.155090,491.629089 
	C531.105591,490.051056 532.784546,488.642639 533.103088,485.147430 
	C533.932129,476.051544 535.170776,466.992981 536.423950,457.152222 
	C536.601868,455.006836 536.601868,453.628723 536.601868,450.761597 
	C523.766357,451.708160 511.320770,451.863861 499.136719,453.728546 
	C485.654846,455.791840 481.870056,465.727783 487.864166,475.755066 
	C489.728119,478.873260 488.627747,481.829498 485.808624,483.500702 
	C483.502350,484.867889 480.602142,485.233185 477.965240,486.042664 
M502.545410,549.705078 
	C508.537476,550.910278 512.359741,547.435608 515.641174,543.306519 
	C522.441711,534.749390 525.301270,524.514771 527.883789,513.429688 
	C528.321655,510.974365 528.759521,508.519012 529.363525,505.132233 
	C518.809021,509.918365 509.922150,514.964905 503.205078,523.151062 
	C498.707092,528.632751 496.288574,534.867371 496.928192,542.061401 
	C497.222870,545.375244 498.252716,548.268494 502.545410,549.705078 
z"/>
<path fill="#FCFCFE" opacity="1.000000" stroke="none" 
	d="
M273.916626,487.713928 
	C278.996155,487.663910 284.078125,487.496918 289.154449,487.601868 
	C293.036774,487.682098 297.311249,487.293549 298.910065,493.057190 
	C298.053772,501.328613 295.244965,503.899323 287.580170,503.973511 
	C280.153748,504.045349 272.726105,503.989044 266.396057,503.989044 
	C263.757965,513.782837 262.000641,522.802185 258.865173,531.313843 
	C254.967041,541.895874 246.801300,548.001892 235.595306,550.264893 
	C226.761353,552.048950 218.444107,550.429565 210.152344,547.711914 
	C210.152344,547.711914 210.060532,547.822998 210.090881,547.552856 
	C209.747299,547.135132 209.373383,546.987549 208.999466,546.839966 
	C206.294113,544.675598 203.303024,542.775269 200.977875,540.259521 
	C199.256592,538.397095 197.307144,535.676086 197.425095,533.441345 
	C197.589798,530.320984 198.763245,526.243652 201.003326,524.493408 
	C203.942215,522.197205 206.675659,525.418518 208.780670,527.859802 
	C210.081299,529.368225 211.286942,530.984253 212.739685,532.331543 
	C221.828476,540.760803 235.467010,538.796997 240.809586,527.650879 
	C243.393906,522.259216 244.000824,515.919678 245.653625,509.214600 
	C245.804230,507.019958 245.804230,505.620056 245.804230,504.069336 
	C242.955582,504.069336 240.482239,504.069336 238.008896,504.069336 
	C234.089874,502.524261 231.352890,500.088959 232.268234,495.438751 
	C234.046631,486.403717 241.802612,489.160248 248.197662,487.859406 
	C249.125946,478.253662 250.062698,468.560303 251.055450,458.070740 
	C251.250000,455.710907 251.388565,454.147339 251.586166,451.917694 
	C246.099060,452.988190 241.172684,453.606079 236.448486,454.939972 
	C225.461243,458.042358 222.645248,464.489136 227.355835,474.916870 
	C229.338776,479.306488 228.125214,482.308624 223.455322,483.637177 
	C221.438309,484.210968 219.198837,484.002777 217.060425,484.149811 
	C214.755966,481.289124 211.411301,478.773041 210.329544,475.507324 
	C205.964600,462.329956 211.216370,449.562408 224.292801,444.164520 
	C233.529602,440.351593 243.600266,437.819244 253.531342,436.580261 
	C274.748871,433.933228 296.077820,434.834625 317.234039,437.983032 
	C319.584137,438.332764 321.612030,440.847900 323.883667,443.084412 
	C323.491211,451.414337 321.316864,453.465912 313.662750,453.140625 
	C300.716980,452.590485 287.775208,451.941742 274.834198,451.286438 
	C272.233032,451.154724 270.417847,451.431732 270.180603,454.775635 
	C269.407654,465.668762 268.378601,476.543701 267.423431,487.713898 
	C269.700562,487.713898 271.808594,487.713898 273.916626,487.713928 
z"/>
<path fill="#EB9D3D" opacity="1.000000" stroke="none" 
	d="
M766.562622,309.421112 
	C782.080383,332.732941 794.640442,357.093842 802.793640,383.792755 
	C768.943787,295.827545 710.263916,230.850800 623.772949,193.014374 
	C536.892090,155.007385 448.822052,155.228439 361.971649,192.901688 
	C275.279144,230.506470 216.597565,295.618469 183.416199,384.105743 
	C182.933167,383.847168 182.450119,383.588562 181.967087,383.329956 
	C182.507111,381.622833 182.969650,379.886597 183.598419,378.212799 
	C204.066544,323.725952 236.512955,277.637024 281.052734,240.202530 
	C326.681274,201.852966 378.945496,177.311172 437.825531,168.005371 
	C535.542358,152.561554 623.549255,175.407181 700.965027,237.330994 
	C726.501831,257.757568 748.096375,281.970001 766.562622,309.421112 
z"/>
<path fill="#EC9E3C" opacity="1.000000" stroke="none" 
	d="
M721.167053,730.166992 
	C674.100708,774.891785 619.186768,803.884216 555.745972,816.269226 
	C520.158203,823.216736 484.296997,824.188782 448.341583,819.294006 
	C385.354187,810.719360 329.455811,785.748352 280.761688,745.148743 
	C241.513275,712.424683 211.772095,672.242920 190.979660,625.509460 
	C190.537170,624.514893 190.287292,623.434631 190.196320,622.241211 
	C252.804581,746.947021 351.599731,816.060303 492.949249,820.059998 
	C634.277588,815.897705 732.803589,746.493469 795.412231,622.055420 
	C778.254089,663.132935 753.380249,698.941711 721.167053,730.166992 
z"/>
<path fill="#4A5EA9" opacity="1.000000" stroke="none" 
	d="
M492.082794,563.202637 
	C510.869019,566.801208 522.657043,561.767151 532.897766,545.093750 
	C542.278503,529.820435 546.677795,512.744751 549.907959,495.380890 
	C552.399109,481.989594 554.176453,468.465485 556.332458,454.606964 
	C561.085449,453.903503 563.523560,450.924957 563.164978,445.377075 
	C567.343994,445.087189 567.843323,448.045288 568.019287,451.191833 
	C568.204224,454.496460 567.852417,457.392395 564.121338,458.972229 
	C562.777283,459.541290 561.306519,461.398224 561.103088,462.838318 
	C557.561768,487.902954 554.695007,513.125854 544.872131,536.777649 
	C540.126282,548.204773 534.348572,558.988525 523.052490,565.635559 
	C514.670288,570.567932 500.233887,570.492432 493.260010,565.076721 
	C492.772095,564.697815 492.474304,564.074097 492.082794,563.202637 
z"/>
<path fill="#495DA8" opacity="1.000000" stroke="none" 
	d="
M210.215485,548.066162 
	C218.444107,550.429565 226.761353,552.048950 235.595306,550.264893 
	C246.801300,548.001892 254.967041,541.895874 258.865173,531.313843 
	C262.000641,522.802185 263.757965,513.782837 266.396057,503.989044 
	C272.726105,503.989044 280.153748,504.045349 287.580170,503.973511 
	C295.244965,503.899323 298.053772,501.328613 299.035706,493.397186 
	C302.905975,492.941956 304.069794,495.255524 304.189270,498.987946 
	C303.743134,501.718994 303.223328,504.038025 302.519714,506.650269 
	C293.705719,510.617432 284.624878,508.704559 275.748474,508.866882 
	C271.798828,508.939087 270.674011,510.553833 269.988434,513.929016 
	C268.576416,520.880371 267.271881,527.904175 265.127655,534.645203 
	C261.117004,547.254150 249.964111,555.408813 236.752930,555.977234 
	C227.116409,556.391968 217.856155,555.305603 210.215485,548.066162 
z"/>
<path fill="#4C5FAA" opacity="1.000000" stroke="none" 
	d="
M273.933014,487.270630 
	C271.808594,487.713898 269.700562,487.713898 267.423431,487.713898 
	C268.378601,476.543701 269.407654,465.668762 270.180603,454.775635 
	C270.417847,451.431732 272.233032,451.154724 274.834198,451.286438 
	C287.775208,451.941742 300.716980,452.590485 313.662750,453.140625 
	C321.316864,453.465912 323.491211,451.414337 324.029663,443.409180 
	C328.838989,445.245728 330.315552,448.184174 328.891449,453.397339 
	C327.821136,457.315552 324.579590,458.104950 321.037292,458.015472 
	C308.110718,457.689056 295.179504,457.452545 282.262451,456.894562 
	C277.860443,456.704407 275.792999,457.392914 275.785278,462.630615 
	C275.773407,470.697052 274.619080,478.761871 273.933014,487.270630 
z"/>
<path fill="#4A5EA9" opacity="1.000000" stroke="none" 
	d="
M747.124756,549.121704 
	C764.641357,553.503418 777.271057,546.943665 783.317932,529.546204 
	C784.466248,526.242249 786.187683,525.269897 789.361755,525.077576 
	C792.489502,524.888123 795.576965,524.060547 798.686768,523.541260 
	C804.140564,522.630493 806.947327,519.638916 806.386658,513.500916 
	C809.902588,513.047424 811.731201,514.885254 811.945068,518.190430 
	C812.184082,521.884460 812.411072,525.940369 807.968262,527.377380 
	C804.075378,528.636536 799.976379,529.378601 795.912415,529.952209 
	C792.388245,530.449707 790.090515,531.415649 788.623596,535.290100 
	C784.602417,545.911560 777.731750,553.966431 765.674255,555.546753 
	C758.710083,556.459473 752.144348,555.232361 747.124756,549.121704 
z"/>
<path fill="#4C5FAA" opacity="1.000000" stroke="none" 
	d="
M478.013885,486.398926 
	C480.602142,485.233185 483.502350,484.867889 485.808624,483.500702 
	C488.627747,481.829498 489.728119,478.873260 487.864166,475.755066 
	C481.870056,465.727783 485.654846,455.791840 499.136719,453.728546 
	C511.320770,451.863861 523.766357,451.708160 536.601868,450.761597 
	C536.601868,453.628723 536.601868,455.006836 536.393799,456.706543 
	C524.995239,457.699860 513.664429,457.505035 502.653656,459.287292 
	C491.678741,461.063782 488.009277,469.369873 492.434174,478.912506 
	C494.930878,484.296844 494.250580,486.787964 489.480988,489.726654 
	C485.322754,492.288727 481.311066,491.244720 478.013885,486.398926 
z"/>
<path fill="#4B5EA9" opacity="1.000000" stroke="none" 
	d="
M771.608276,488.374695 
	C769.175903,487.988861 767.109375,487.409241 764.767700,486.752502 
	C767.417542,482.823578 770.036560,479.211151 772.372864,475.424286 
	C778.790955,465.021088 782.626282,453.790253 782.103149,441.438019 
	C781.951538,437.856842 780.775696,434.319031 780.002563,430.371765 
	C786.242737,432.199768 787.309326,438.157318 787.660767,443.233856 
	C788.841064,460.281036 783.453491,475.378967 771.608276,488.374695 
z"/>
<path fill="#4A5EA8" opacity="1.000000" stroke="none" 
	d="
M371.104675,551.204346 
	C377.226227,551.048218 379.655121,547.282898 381.599823,541.848083 
	C385.144531,531.941833 389.371216,522.267334 393.649841,512.645691 
	C394.580444,510.553009 396.928345,509.090607 398.623474,507.337921 
	C399.166168,507.633514 399.708862,507.929138 400.251556,508.224762 
	C399.898010,511.236176 399.544464,514.247620 398.818420,517.845337 
	C398.397308,519.024170 398.348663,519.616699 398.299988,520.209229 
	C398.299988,520.209229 398.323151,520.251953 398.342651,520.267395 
	C394.933746,527.669556 391.433960,535.024536 388.129059,542.466064 
	C387.340057,544.242676 387.333008,546.349365 386.741119,548.233459 
	C384.011322,556.922668 377.418854,558.304504 371.104675,551.204346 
z"/>
<path fill="#4A5EA8" opacity="1.000000" stroke="none" 
	d="
M672.005066,551.237427 
	C679.467346,550.025269 680.209900,548.712158 682.962708,540.989197 
	C686.443848,531.223022 690.714355,521.726501 694.954163,512.252258 
	C695.827209,510.301300 698.064392,508.960754 699.672852,507.338867 
	C700.209595,507.628876 700.746338,507.918884 701.283081,508.208923 
	C700.952454,511.224579 700.621765,514.240234 699.876709,517.826416 
	C699.428345,518.998840 699.394470,519.600708 699.360535,520.202637 
	C699.360535,520.202637 699.372375,520.253784 699.387085,520.275879 
	C697.629761,522.922302 695.301392,525.333008 694.195557,528.213196 
	C691.469604,535.312683 689.226929,542.603210 686.947693,549.866455 
	C685.801758,553.518127 683.184814,555.932190 679.768127,555.630859 
	C677.099121,555.395508 674.618286,553.027344 672.005066,551.237427 
z"/>
<path fill="#4B5FA9" opacity="1.000000" stroke="none" 
	d="
M638.954407,551.263550 
	C645.029297,550.952698 647.288391,547.080933 649.066040,541.859070 
	C652.423218,531.997437 656.239380,522.281006 660.223694,512.652771 
	C661.089478,510.560547 663.466858,509.093842 665.147949,507.339050 
	C665.720947,507.626282 666.293945,507.913544 666.866943,508.200775 
	C666.632202,510.885590 666.397461,513.570435 666.050293,516.644287 
	C662.290955,526.046387 658.615234,535.048096 655.019226,544.081482 
	C654.224731,546.077271 654.213318,548.592224 652.951660,550.145630 
	C651.103821,552.420959 648.627014,555.208740 646.091797,555.586182 
	C643.974854,555.901367 641.389160,553.068787 638.954407,551.263550 
z"/>
<path fill="#4B5FA9" opacity="1.000000" stroke="none" 
	d="
M217.217163,484.446869 
	C219.198837,484.002777 221.438309,484.210968 223.455322,483.637177 
	C228.125214,482.308624 229.338776,479.306488 227.355835,474.916870 
	C222.645248,464.489136 225.461243,458.042358 236.448486,454.939972 
	C241.172684,453.606079 246.099060,452.988190 251.586166,451.917694 
	C251.388565,454.147339 251.250000,455.710907 251.008728,457.636108 
	C246.473648,459.230652 241.799911,459.933960 237.664551,461.818634 
	C231.201324,464.764191 229.116379,471.263184 231.899033,477.726105 
	C233.388428,481.185333 236.084656,484.631805 231.410904,487.725433 
	C227.603043,490.245972 221.861679,489.408386 218.347672,485.874268 
	C217.997940,485.522461 217.697296,485.121887 217.217163,484.446869 
z"/>
<path fill="#4A5EA9" opacity="1.000000" stroke="none" 
	d="
M405.023560,550.412415 
	C421.241730,553.527039 432.516998,541.968018 439.057465,532.850952 
	C440.385712,530.999451 440.350555,528.169861 441.017578,525.399658 
	C444.750092,524.573975 446.003143,526.214233 446.115479,529.852783 
	C446.269409,534.837769 444.712250,538.788879 441.241882,542.340881 
	C435.145325,548.580933 428.766693,554.174683 419.719788,555.611328 
	C413.955780,556.526672 408.958862,555.395935 405.023560,550.412415 
z"/>
<path fill="#4B5EA9" opacity="1.000000" stroke="none" 
	d="
M351.972809,534.547546 
	C347.430725,535.963501 345.545105,534.549011 346.124786,529.542236 
	C346.868378,523.119446 348.282867,516.770996 349.490570,510.406128 
	C350.605804,504.528900 351.829681,498.672302 353.103088,492.402405 
	C358.503296,492.501892 359.280823,493.536804 358.400726,498.336792 
	C356.216034,510.252228 354.113068,522.182678 351.972809,534.547546 
z"/>
<path fill="#4B5FA9" opacity="1.000000" stroke="none" 
	d="
M418.985779,534.573120 
	C414.479462,536.020142 412.615540,534.625732 413.186951,529.614502 
	C413.899475,523.366272 415.462494,517.220154 416.429321,510.994324 
	C417.318085,505.271210 417.903168,499.500885 418.628143,493.310425 
	C424.778564,494.418793 424.760284,497.980316 423.601044,507.383728 
	C422.495087,516.354736 420.558533,525.223267 418.985779,534.573120 
z"/>
<path fill="#4C5FAA" opacity="1.000000" stroke="none" 
	d="
M719.974243,534.590210 
	C715.554382,535.970337 713.658325,534.490662 714.232056,529.562195 
	C714.938538,523.492493 716.454285,517.521606 717.398621,511.473419 
	C718.315552,505.600525 718.951965,499.683868 719.721680,493.342163 
	C724.863953,495.014954 726.118042,498.845520 724.683594,506.560760 
	C722.978577,515.730652 721.533813,524.949036 719.974243,534.590210 
z"/>
<path fill="#495EA8" opacity="1.000000" stroke="none" 
	d="
M322.115601,528.868042 
	C320.879669,529.821533 319.604004,530.335083 318.328308,530.848694 
	C317.761139,529.380920 316.562958,527.836243 316.730743,526.457947 
	C317.712830,518.390503 318.921967,510.346619 320.253143,502.327789 
	C320.794861,499.064484 321.835876,495.884064 322.827911,492.328430 
	C328.029114,492.467316 329.060883,494.205994 327.734894,500.257721 
	C326.354797,506.556549 324.812897,512.820496 323.488068,519.130493 
	C322.844971,522.193542 322.536072,525.326721 322.115601,528.868042 
z"/>
<path fill="#4B5EA9" opacity="1.000000" stroke="none" 
	d="
M619.954956,534.405457 
	C615.659119,536.168762 613.760742,535.180176 614.057434,530.950012 
	C614.493469,524.732300 615.540222,518.551636 616.464111,512.375732 
	C617.193970,507.496277 618.130371,502.647766 619.056641,497.370178 
	C623.804932,496.856232 625.137512,499.023285 624.378357,503.576447 
	C622.695435,513.669922 621.409912,523.829773 619.954956,534.405457 
z"/>
<path fill="#4A5EA9" opacity="1.000000" stroke="none" 
	d="
M706.000854,550.387329 
	C718.699158,552.721130 728.072266,546.649902 736.337036,537.809692 
	C737.716919,539.839233 738.835510,541.484497 740.074463,543.444092 
	C732.687500,553.398193 720.218628,558.307800 711.251648,554.839905 
	C709.284790,554.079285 707.774536,552.137878 706.000854,550.387329 
z"/>
<path fill="#4A5EA9" opacity="1.000000" stroke="none" 
	d="
M576.183228,550.100342 
	C586.508545,552.354858 594.666687,549.116333 600.539673,539.800720 
	C602.177917,542.181458 603.571350,544.206543 605.104004,546.541626 
	C601.706604,549.450562 598.455505,552.642090 594.568909,554.515015 
	C588.108215,557.628418 581.500427,555.799622 576.183228,550.100342 
z"/>
<path fill="#4B5EA9" opacity="1.000000" stroke="none" 
	d="
M311.194946,551.062317 
	C322.941589,551.368469 326.808533,542.728027 330.439484,533.979980 
	C331.316650,537.422852 332.164886,540.752319 333.071533,544.461121 
	C329.537323,553.200928 322.584351,557.546021 316.210571,555.100952 
	C314.362488,554.392090 312.899841,552.678406 311.194946,551.062317 
z"/>
<path fill="#4C5FAA" opacity="1.000000" stroke="none" 
	d="
M339.228607,550.456116 
	C348.581055,551.922302 356.482452,548.570740 363.615875,542.172302 
	C364.766266,544.330688 365.820343,546.308350 367.006439,548.606873 
	C362.719299,551.016907 358.405884,553.382141 353.854431,555.126038 
	C348.086975,557.335754 343.157349,555.682373 339.228607,550.456116 
z"/>
<path fill="#4B5EA9" opacity="1.000000" stroke="none" 
	d="
M610.116821,550.303345 
	C618.821838,552.444336 625.090881,547.480591 631.216614,542.311829 
	C632.406433,544.499756 633.474670,546.463867 634.674438,548.733765 
	C629.366821,552.947266 624.075317,557.650940 616.637268,554.938477 
	C614.299866,554.086121 612.380493,552.087463 610.116821,550.303345 
z"/>
<path fill="#5063AB" opacity="1.000000" stroke="none" 
	d="
M390.533020,497.736816 
	C387.370148,503.916504 383.983978,509.799591 380.289062,515.827332 
	C379.980347,515.971985 380.017975,515.997620 380.017975,515.997620 
	C381.052246,509.912811 382.071381,503.825348 383.130127,497.744812 
	C383.437683,495.978546 383.858521,494.232025 384.459351,492.184631 
	C388.947266,491.328278 390.318024,493.685883 390.533020,497.736816 
z"/>
<path fill="#5063AB" opacity="1.000000" stroke="none" 
	d="
M657.465698,497.673828 
	C654.188171,503.931488 650.714172,509.887543 647.240112,515.843628 
	C647.019470,515.839783 646.798889,515.835938 646.578308,515.832092 
	C648.357544,508.134521 650.136841,500.436951 652.033508,492.365173 
	C656.434998,491.332764 657.230042,493.993042 657.465698,497.673828 
z"/>
<path fill="#5265AD" opacity="1.000000" stroke="none" 
	d="
M690.063660,499.847748 
	C687.602966,504.731720 685.105835,509.228882 682.299194,513.855469 
	C681.989746,513.984985 682.036011,514.021729 682.036011,514.021729 
	C682.794983,507.303497 683.553894,500.585236 684.339478,493.404724 
	C688.498108,493.165527 689.417908,496.178406 690.063660,499.847748 
z"/>
<path fill="#4E60AD" opacity="1.000000" stroke="none" 
	d="
M790.000366,510.439636 
	C787.112427,511.690674 785.504639,511.072601 784.931274,507.648712 
	C784.425476,504.628540 782.973022,501.766907 781.880493,498.469299 
	C787.120667,500.336945 788.144958,505.486237 790.000366,510.439636 
z"/>
<path fill="#495DA8" opacity="1.000000" stroke="none" 
	d="
M238.049805,504.420135 
	C240.482239,504.069336 242.955582,504.069336 245.804230,504.069336 
	C245.804230,505.620056 245.804230,507.019958 245.648621,508.777649 
	C243.025574,507.680603 240.558151,506.225769 238.049805,504.420135 
z"/>
<path fill="#4A5EA9" opacity="1.000000" stroke="none" 
	d="
M490.178101,562.078735 
	C490.621033,561.990540 491.208771,562.191162 491.949158,562.664795 
	C491.508820,562.747681 490.915894,562.557617 490.178101,562.078735 
z"/>
<path fill="#4E60AD" opacity="1.000000" stroke="none" 
	d="
M781.872620,497.878876 
	C781.668640,497.925476 781.385437,497.723297 781.052429,497.250366 
	C781.266235,497.196442 781.529785,497.413269 781.872620,497.878876 
z"/>
<path fill="#4E60AD" opacity="1.000000" stroke="none" 
	d="
M780.940552,496.825867 
	C780.755127,496.900665 780.545898,496.729980 780.358765,496.291565 
	C780.554077,496.228729 780.732666,496.414215 780.940552,496.825867 
z"/>
<path fill="#495DA8" opacity="1.000000" stroke="none" 
	d="
M209.110352,547.101074 
	C209.373383,546.987549 209.747299,547.135132 210.154633,547.586426 
	C209.865784,547.714172 209.543518,547.538208 209.110352,547.101074 
z"/>
<path fill="#4A5EA9" opacity="1.000000" stroke="none" 
	d="
M575.185669,549.331238 
	C575.383850,549.219116 575.714050,549.308044 576.118164,549.650635 
	C575.855591,549.886108 575.564148,549.762146 575.185669,549.331238 
z"/>
<path fill="#4B5EA9" opacity="1.000000" stroke="none" 
	d="
M310.172791,550.357300 
	C310.379913,550.224182 310.723236,550.288330 311.129852,550.613647 
	C310.853119,550.893066 310.558411,550.786316 310.172791,550.357300 
z"/>
<path fill="#4C60AA" opacity="1.000000" stroke="none" 
	d="
M758.074951,479.168152 
	C756.213135,483.046692 754.367554,486.933136 752.478394,490.798309 
	C751.997131,491.782684 751.377686,492.699524 749.604797,493.367188 
	C750.744690,485.305054 751.396362,477.134918 753.150269,469.208679 
	C755.256592,459.689514 758.137451,450.326172 761.076782,441.019775 
	C761.676636,439.120331 764.022888,437.772461 765.564148,436.170349 
	C766.706726,438.180542 767.849365,440.190674 768.646729,442.765503 
	C761.828552,454.401855 759.760071,466.730316 758.074951,479.168152 
z"/>
<path fill="#6259D7" opacity="1.000000" stroke="none" 
	d="
M761.402222,507.907410 
	C763.864746,512.450684 766.354126,516.979858 768.767456,521.549072 
	C769.260986,522.483337 769.846558,523.606079 769.748962,524.577576 
	C769.054993,531.484741 763.648376,536.147705 756.178528,535.697754 
	C755.433899,535.201050 755.187744,535.077332 754.909668,535.017151 
	C754.909668,535.017151 754.983521,535.020142 754.996826,534.616211 
	C754.765137,532.581116 754.367493,530.956116 754.301086,529.317810 
	C753.976685,521.303223 753.609314,513.241394 761.402222,507.907410 
z"/>
<path fill="#4B5FA9" opacity="1.000000" stroke="none" 
	d="
M587.016968,536.782104 
	C585.356445,535.188599 582.717041,533.860840 582.200256,531.956909 
	C579.600525,522.377930 585.766235,507.383118 594.212097,502.070923 
	C596.385864,500.703644 598.972229,499.992279 602.447998,498.523712 
	C601.882141,501.806274 601.504578,503.996429 600.662170,506.617798 
	C589.590332,514.205627 587.141235,524.978577 587.016968,536.782104 
z"/>
<path fill="#6258D7" opacity="1.000000" stroke="none" 
	d="
M587.378174,536.864380 
	C587.141235,524.978577 589.590332,514.205627 600.532288,506.989807 
	C599.549744,513.604553 598.562561,520.367126 596.802368,526.922241 
	C595.561096,531.544617 593.650085,536.233826 587.378174,536.864380 
z"/>
<path fill="#4B5FA9" opacity="1.000000" stroke="none" 
	d="
M761.490845,507.489441 
	C753.609314,513.241394 753.976685,521.303223 754.301086,529.317810 
	C754.367493,530.956116 754.765137,532.581116 754.986084,534.651550 
	C746.640015,529.539734 748.383606,521.116028 749.439148,513.403381 
	C750.323120,506.944000 753.580933,501.451660 761.579468,500.157715 
	C761.579468,502.631744 761.579468,504.851593 761.490845,507.489441 
z"/>
<path fill="#6359D7" opacity="1.000000" stroke="none" 
	d="
M758.339050,478.934235 
	C759.760071,466.730316 761.828552,454.401855 768.593140,443.148254 
	C769.973450,453.839447 765.590698,463.341064 761.368042,472.877655 
	C760.498474,474.841583 759.527405,476.760590 758.339050,478.934235 
z"/>
<path fill="#5265AD" opacity="1.000000" stroke="none" 
	d="
M681.968872,513.964172 
	C681.909241,514.561829 681.870544,515.180237 681.831848,515.798706 
	C681.716858,515.799011 681.601929,515.799316 681.487000,515.799622 
	C681.487000,515.243103 681.487000,514.686646 681.761475,514.075928 
	C682.036011,514.021729 681.989746,513.984985 681.968872,513.964172 
z"/>
<path fill="#5F54D7" opacity="1.000000" stroke="none" 
	d="
M699.595947,520.009888 
	C699.394470,519.600708 699.428345,518.998840 699.711792,518.200867 
	C699.918030,518.608948 699.874695,519.213013 699.595947,520.009888 
z"/>
<path fill="#4B5FA9" opacity="1.000000" stroke="none" 
	d="
M755.008667,535.217773 
	C755.187744,535.077332 755.433899,535.201050 755.776672,535.551636 
	C755.576843,535.784302 755.310974,535.685425 755.008667,535.217773 
z"/>
<path fill="#5F54D7" opacity="1.000000" stroke="none" 
	d="
M398.536865,520.019897 
	C398.348663,519.616699 398.397308,519.024170 398.684814,518.236328 
	C398.873688,518.637573 398.823669,519.234131 398.536865,520.019897 
z"/>
<path fill="#5063AB" opacity="1.000000" stroke="none" 
	d="
M379.966064,515.953918 
	C379.805237,516.302795 379.658691,516.669800 379.512146,517.036743 
	C379.551422,516.752136 379.590729,516.467590 379.823975,516.090332 
	C380.017975,515.997620 379.980347,515.971985 379.966064,515.953918 
z"/>
<path fill="#6157D7" opacity="1.000000" stroke="none" 
	d="
M527.574097,514.072388 
	C525.301270,524.514771 522.441711,534.749390 515.641174,543.306519 
	C512.359741,547.435608 508.537476,550.910278 502.270203,549.000427 
	C502.246246,545.342957 502.049194,542.266174 502.825470,539.458557 
	C506.401123,526.526306 516.017944,519.316101 527.574097,514.072388 
z"/>
<path fill="#4B5FA9" opacity="1.000000" stroke="none" 
	d="
M527.728943,513.751038 
	C516.017944,519.316101 506.401123,526.526306 502.825470,539.458557 
	C502.049194,542.266174 502.246246,545.342957 501.979492,548.761536 
	C498.252716,548.268494 497.222870,545.375244 496.928192,542.061401 
	C496.288574,534.867371 498.707092,528.632751 503.205078,523.151062 
	C509.922150,514.964905 518.809021,509.918365 529.363525,505.132233 
	C528.759521,508.519012 528.321655,510.974365 527.728943,513.751038 
z"/>
</svg>